<svg id="Capa_1" enable-background="new 0 0 512 512" height="512" viewBox="0 0 512 512" width="512" xmlns="http://www.w3.org/2000/svg" xmlns:xlink="http://www.w3.org/1999/xlink"><linearGradient id="SVGID_1_" gradientTransform="matrix(1 0 0 -1 0 510.188)" gradientUnits="userSpaceOnUse" x1="256" x2="256" y1="-1.718" y2="510.094"><stop offset="0" stop-color="#00b59c"/><stop offset="1" stop-color="#9cffac"/></linearGradient><g><path d="m457 .094h-402c-30.327 0-55 24.673-55 55v240c0 30.327 24.673 55 55 55h402c30.327 0 55-24.673 55-55v-240c0-30.327-24.673-55-55-55zm25 295c0 13.785-11.215 25-25 25h-402c-13.785 0-25-11.215-25-25v-240c0-13.785 11.215-25 25-25h402c13.785 0 25 11.215 25 25zm15 157h-68.58c-14.182-39.762-70.673-39.737-84.84 0h-328.58c-19.881.738-19.866 29.269 0 30h328.58c14.182 39.762 70.673 39.737 84.84 0h68.58c19.881-.738 19.866-29.269 0-30zm-111 30c-8.271 0-15-6.729-15-15 .754-19.872 29.249-19.867 30 0 0 8.271-6.729 15-15 15zm-51.68-319.481-120-80c-9.968-6.646-23.32.5-23.32 12.481v159.999c0 11.98 13.352 19.126 23.32 12.481l120-80c8.906-5.937 8.906-19.024 0-24.961zm-113.32 64.454v-103.946l77.958 51.973z" fill="url(#SVGID_1_)"/></g></svg>